<mxfile host="65bd71144e">
    <diagram id="Fd6LHyEM8F01VcV2Fie9" name="Page-1">
        <mxGraphModel dx="2657" dy="1158" grid="1" gridSize="10" guides="1" tooltips="1" connect="1" arrows="1" fold="1" page="1" pageScale="1" pageWidth="1100" pageHeight="850" background="#ffffff" math="0" shadow="0">
            <root>
                <mxCell id="0"/>
                <mxCell id="1" parent="0"/>
                <mxCell id="2" value="&lt;h1&gt;janusly Server App Architecture&lt;/h1&gt;" style="text;html=1;strokeColor=none;fillColor=none;align=left;verticalAlign=middle;whiteSpace=wrap;rounded=0;fontSize=12;" parent="1" vertex="1">
                    <mxGeometry x="20" y="20" width="400" height="30" as="geometry"/>
                </mxCell>
                <mxCell id="16" value="We adopt &lt;b&gt;Onion Architecture&lt;/b&gt;, due to simplicity and flexibility." style="text;html=1;strokeColor=none;fillColor=none;align=center;verticalAlign=middle;whiteSpace=wrap;rounded=0;fontSize=12;" parent="1" vertex="1">
                    <mxGeometry x="30" y="60" width="360" height="30" as="geometry"/>
                </mxCell>
                <mxCell id="18" value="Layerd View" style="swimlane;whiteSpace=wrap;html=1;fontSize=12;" parent="1" vertex="1">
                    <mxGeometry x="30" y="120" width="430" height="370" as="geometry"/>
                </mxCell>
                <mxCell id="3" value="Presentation" style="rounded=0;whiteSpace=wrap;html=1;fontSize=12;" parent="18" vertex="1">
                    <mxGeometry x="40" y="60" width="160" height="60" as="geometry"/>
                </mxCell>
                <mxCell id="4" value="Usecase" style="rounded=0;whiteSpace=wrap;html=1;fontSize=12;" parent="18" vertex="1">
                    <mxGeometry x="40" y="170" width="270" height="60" as="geometry"/>
                </mxCell>
                <mxCell id="7" style="edgeStyle=none;html=1;exitX=0.5;exitY=1;exitDx=0;exitDy=0;entryX=0.298;entryY=0.006;entryDx=0;entryDy=0;entryPerimeter=0;fontSize=12;" parent="18" source="3" target="4" edge="1">
                    <mxGeometry relative="1" as="geometry"/>
                </mxCell>
                <mxCell id="10" value="use" style="edgeLabel;html=1;align=center;verticalAlign=middle;resizable=0;points=[];fontSize=12;" parent="7" vertex="1" connectable="0">
                    <mxGeometry x="-0.3727" y="-2" relative="1" as="geometry">
                        <mxPoint x="2" y="15" as="offset"/>
                    </mxGeometry>
                </mxCell>
                <mxCell id="5" value="Domain" style="rounded=0;whiteSpace=wrap;html=1;fontSize=12;" parent="18" vertex="1">
                    <mxGeometry x="40" y="270" width="350" height="60" as="geometry"/>
                </mxCell>
                <mxCell id="9" style="edgeStyle=none;html=1;exitX=0.25;exitY=1;exitDx=0;exitDy=0;entryX=0.194;entryY=-0.009;entryDx=0;entryDy=0;entryPerimeter=0;fontSize=12;" parent="18" source="4" target="5" edge="1">
                    <mxGeometry relative="1" as="geometry"/>
                </mxCell>
                <mxCell id="11" value="use" style="edgeLabel;html=1;align=center;verticalAlign=middle;resizable=0;points=[];fontSize=12;" parent="9" vertex="1" connectable="0">
                    <mxGeometry x="-0.2904" relative="1" as="geometry">
                        <mxPoint as="offset"/>
                    </mxGeometry>
                </mxCell>
                <mxCell id="12" style="edgeStyle=none;html=1;exitX=0.25;exitY=1;exitDx=0;exitDy=0;entryX=0.88;entryY=0;entryDx=0;entryDy=0;entryPerimeter=0;fontSize=12;endArrow=block;endFill=0;" parent="18" source="6" target="4" edge="1">
                    <mxGeometry relative="1" as="geometry"/>
                </mxCell>
                <mxCell id="14" value="Impl" style="edgeLabel;html=1;align=center;verticalAlign=middle;resizable=0;points=[];fontSize=12;" parent="12" vertex="1" connectable="0">
                    <mxGeometry x="-0.1128" y="-1" relative="1" as="geometry">
                        <mxPoint as="offset"/>
                    </mxGeometry>
                </mxCell>
                <mxCell id="13" style="edgeStyle=none;html=1;exitX=0.75;exitY=1;exitDx=0;exitDy=0;entryX=0.897;entryY=0.006;entryDx=0;entryDy=0;entryPerimeter=0;fontSize=12;endArrow=block;endFill=0;" parent="18" source="6" target="5" edge="1">
                    <mxGeometry relative="1" as="geometry"/>
                </mxCell>
                <mxCell id="15" value="Impl" style="edgeLabel;html=1;align=center;verticalAlign=middle;resizable=0;points=[];fontSize=12;" parent="13" vertex="1" connectable="0">
                    <mxGeometry x="0.0448" relative="1" as="geometry">
                        <mxPoint as="offset"/>
                    </mxGeometry>
                </mxCell>
                <mxCell id="6" value="Infrastructure" style="rounded=0;whiteSpace=wrap;html=1;fontSize=12;" parent="18" vertex="1">
                    <mxGeometry x="240" y="60" width="150" height="60" as="geometry"/>
                </mxCell>
                <mxCell id="33" value="Standard View" style="swimlane;whiteSpace=wrap;html=1;fontSize=12;" parent="1" vertex="1">
                    <mxGeometry x="30" y="540" width="890" height="800" as="geometry"/>
                </mxCell>
                <mxCell id="46" value="" style="ellipse;whiteSpace=wrap;html=1;aspect=fixed;fontSize=12;verticalAlign=top;" parent="33" vertex="1">
                    <mxGeometry x="150" y="180" width="490" height="490" as="geometry"/>
                </mxCell>
                <mxCell id="48" value="&lt;br style=&quot;font-size: 19px;&quot;&gt;Usecase" style="ellipse;whiteSpace=wrap;html=1;aspect=fixed;fontSize=19;verticalAlign=top;" parent="33" vertex="1">
                    <mxGeometry x="230" y="255" width="340" height="340" as="geometry"/>
                </mxCell>
                <mxCell id="49" value="Domain" style="ellipse;whiteSpace=wrap;html=1;aspect=fixed;fontSize=23;" parent="33" vertex="1">
                    <mxGeometry x="300" y="325" width="200" height="200" as="geometry"/>
                </mxCell>
                <mxCell id="50" value="Presentation &lt;br style=&quot;font-size: 14px;&quot;&gt;( Handler )" style="text;html=1;strokeColor=none;fillColor=none;align=center;verticalAlign=middle;whiteSpace=wrap;rounded=0;fontSize=14;" parent="33" vertex="1">
                    <mxGeometry x="345" y="200" width="100" height="30" as="geometry"/>
                </mxCell>
                <mxCell id="51" value="Testing" style="text;html=1;strokeColor=none;fillColor=none;align=center;verticalAlign=middle;whiteSpace=wrap;rounded=0;fontSize=14;" parent="33" vertex="1">
                    <mxGeometry x="180" y="510" width="70" height="30" as="geometry"/>
                </mxCell>
                <mxCell id="52" value="Infrastructure" style="text;html=1;strokeColor=none;fillColor=none;align=center;verticalAlign=middle;whiteSpace=wrap;rounded=0;fontSize=14;" parent="33" vertex="1">
                    <mxGeometry x="546" y="510" width="70" height="30" as="geometry"/>
                </mxCell>
                <mxCell id="53" value="" style="endArrow=none;html=1;fontSize=12;entryX=0.5;entryY=1;entryDx=0;entryDy=0;" parent="33" target="48" edge="1">
                    <mxGeometry width="50" height="50" relative="1" as="geometry">
                        <mxPoint x="400" y="670" as="sourcePoint"/>
                        <mxPoint x="300" y="710" as="targetPoint"/>
                    </mxGeometry>
                </mxCell>
                <mxCell id="55" value="" style="endArrow=none;html=1;fontSize=12;exitX=0.934;exitY=0.24;exitDx=0;exitDy=0;entryX=0.925;entryY=0.233;entryDx=0;entryDy=0;exitPerimeter=0;entryPerimeter=0;" parent="33" source="48" target="46" edge="1">
                    <mxGeometry width="50" height="50" relative="1" as="geometry">
                        <mxPoint x="650" y="290.0000000000002" as="sourcePoint"/>
                        <mxPoint x="700" y="240" as="targetPoint"/>
                    </mxGeometry>
                </mxCell>
                <mxCell id="54" value="" style="endArrow=none;html=1;fontSize=12;exitX=0.09;exitY=0.208;exitDx=0;exitDy=0;entryX=0.109;entryY=0.188;entryDx=0;entryDy=0;exitPerimeter=0;entryPerimeter=0;" parent="33" source="48" target="46" edge="1">
                    <mxGeometry width="50" height="50" relative="1" as="geometry">
                        <mxPoint x="50" y="350.0000000000002" as="sourcePoint"/>
                        <mxPoint x="100" y="300" as="targetPoint"/>
                    </mxGeometry>
                </mxCell>
                <mxCell id="56" value="" style="endArrow=classic;html=1;fontSize=12;dashed=1;" parent="33" target="49" edge="1">
                    <mxGeometry width="50" height="50" relative="1" as="geometry">
                        <mxPoint x="200" y="230" as="sourcePoint"/>
                        <mxPoint x="270" y="160" as="targetPoint"/>
                    </mxGeometry>
                </mxCell>
                <mxCell id="57" value="depends on" style="edgeLabel;html=1;align=center;verticalAlign=middle;resizable=0;points=[];fontSize=12;" parent="56" vertex="1" connectable="0">
                    <mxGeometry x="0.4927" y="1" relative="1" as="geometry">
                        <mxPoint x="-36" y="-33" as="offset"/>
                    </mxGeometry>
                </mxCell>
                <mxCell id="61" style="edgeStyle=none;html=1;exitX=1;exitY=0;exitDx=0;exitDy=0;entryX=0;entryY=1;entryDx=0;entryDy=0;fontSize=14;endArrow=classic;endFill=1;" parent="33" source="58" target="59" edge="1">
                    <mxGeometry relative="1" as="geometry"/>
                </mxCell>
                <mxCell id="58" value="Integration Test" style="ellipse;whiteSpace=wrap;html=1;fontSize=12;" parent="33" vertex="1">
                    <mxGeometry x="50" y="630" width="120" height="50" as="geometry"/>
                </mxCell>
                <mxCell id="59" value="adapter" style="rounded=1;whiteSpace=wrap;html=1;fontSize=12;" parent="33" vertex="1">
                    <mxGeometry x="190" y="580" width="80" height="30" as="geometry"/>
                </mxCell>
                <mxCell id="62" value="RDB" style="shape=cylinder3;whiteSpace=wrap;html=1;boundedLbl=1;backgroundOutline=1;size=5.818181818181415;fontSize=12;" parent="33" vertex="1">
                    <mxGeometry x="770" y="380" width="60" height="40" as="geometry"/>
                </mxCell>
                <mxCell id="63" value="MockDB" style="shape=cylinder3;whiteSpace=wrap;html=1;boundedLbl=1;backgroundOutline=1;size=5.818181818181415;fontSize=12;" parent="33" vertex="1">
                    <mxGeometry x="770" y="450" width="60" height="40" as="geometry"/>
                </mxCell>
                <mxCell id="64" value="File" style="shape=note;whiteSpace=wrap;html=1;backgroundOutline=1;darkOpacity=0.05;fontSize=12;size=8;" parent="33" vertex="1">
                    <mxGeometry x="650" y="650" width="60" height="40" as="geometry"/>
                </mxCell>
                <mxCell id="65" value="External Services" style="ellipse;whiteSpace=wrap;html=1;fontSize=12;" parent="33" vertex="1">
                    <mxGeometry x="530" y="705" width="120" height="50" as="geometry"/>
                </mxCell>
                <mxCell id="73" style="edgeStyle=none;html=1;exitX=0.5;exitY=1;exitDx=0;exitDy=0;entryX=0;entryY=0;entryDx=0;entryDy=0;fontSize=12;endArrow=classic;endFill=1;" parent="33" source="66" target="65" edge="1">
                    <mxGeometry relative="1" as="geometry"/>
                </mxCell>
                <mxCell id="66" value="adapter" style="rounded=1;whiteSpace=wrap;html=1;fontSize=12;" parent="33" vertex="1">
                    <mxGeometry x="466" y="630" width="80" height="30" as="geometry"/>
                </mxCell>
                <mxCell id="72" style="edgeStyle=none;html=1;exitX=1;exitY=1;exitDx=0;exitDy=0;entryX=0;entryY=0;entryDx=0;entryDy=0;entryPerimeter=0;fontSize=12;endArrow=classic;endFill=1;" parent="33" source="67" target="64" edge="1">
                    <mxGeometry relative="1" as="geometry"/>
                </mxCell>
                <mxCell id="67" value="adapter" style="rounded=1;whiteSpace=wrap;html=1;fontSize=12;" parent="33" vertex="1">
                    <mxGeometry x="530" y="580" width="80" height="30" as="geometry"/>
                </mxCell>
                <mxCell id="71" style="edgeStyle=none;html=1;exitX=1;exitY=0.5;exitDx=0;exitDy=0;entryX=0;entryY=0.5;entryDx=0;entryDy=0;entryPerimeter=0;fontSize=12;endArrow=classic;endFill=1;" parent="33" source="68" target="63" edge="1">
                    <mxGeometry relative="1" as="geometry"/>
                </mxCell>
                <mxCell id="68" value="adapter" style="rounded=1;whiteSpace=wrap;html=1;fontSize=12;" parent="33" vertex="1">
                    <mxGeometry x="600" y="450" width="80" height="30" as="geometry"/>
                </mxCell>
                <mxCell id="70" style="edgeStyle=none;html=1;exitX=1;exitY=0.5;exitDx=0;exitDy=0;entryX=0;entryY=0.5;entryDx=0;entryDy=0;entryPerimeter=0;fontSize=12;endArrow=classic;endFill=1;" parent="33" source="69" target="62" edge="1">
                    <mxGeometry relative="1" as="geometry"/>
                </mxCell>
                <mxCell id="69" value="adapter" style="rounded=1;whiteSpace=wrap;html=1;fontSize=12;" parent="33" vertex="1">
                    <mxGeometry x="610" y="390" width="80" height="30" as="geometry"/>
                </mxCell>
                <mxCell id="81" style="edgeStyle=none;html=1;exitX=0.5;exitY=1;exitDx=0;exitDy=0;entryX=0.5;entryY=0;entryDx=0;entryDy=0;fontSize=12;endArrow=classic;endFill=1;" parent="33" source="75" target="78" edge="1">
                    <mxGeometry relative="1" as="geometry"/>
                </mxCell>
                <mxCell id="75" value="Web Client" style="ellipse;whiteSpace=wrap;html=1;fontSize=12;" parent="33" vertex="1">
                    <mxGeometry x="340" y="60" width="120" height="50" as="geometry"/>
                </mxCell>
                <mxCell id="78" value="adapter" style="rounded=1;whiteSpace=wrap;html=1;fontSize=12;" parent="33" vertex="1">
                    <mxGeometry x="360" y="160" width="80" height="30" as="geometry"/>
                </mxCell>
                <mxCell id="83" value="&lt;h1&gt;Usecases&lt;/h1&gt;" style="text;html=1;strokeColor=none;fillColor=none;align=left;verticalAlign=middle;whiteSpace=wrap;rounded=0;fontSize=12;" parent="1" vertex="1">
                    <mxGeometry x="10" y="1520" width="400" height="30" as="geometry"/>
                </mxCell>
                <mxCell id="84" value="Usecases Diagram" style="swimlane;whiteSpace=wrap;html=1;fontSize=12;" parent="1" vertex="1">
                    <mxGeometry x="30" y="1590" width="1010" height="1030" as="geometry"/>
                </mxCell>
                <mxCell id="105" value="&lt;b&gt;&lt;font style=&quot;font-size: 14px;&quot;&gt;v1 scope&amp;nbsp; &amp;nbsp; &amp;nbsp; &amp;nbsp; &amp;nbsp;&lt;/font&gt;&lt;/b&gt;" style="rounded=1;whiteSpace=wrap;html=1;arcSize=8;fillColor=none;dashed=1;align=right;verticalAlign=bottom;" vertex="1" parent="84">
                    <mxGeometry x="40" y="50" width="940" height="620" as="geometry"/>
                </mxCell>
                <mxCell id="92" style="edgeStyle=orthogonalEdgeStyle;html=1;exitX=1;exitY=0.3333333333333333;exitDx=0;exitDy=0;exitPerimeter=0;entryX=0;entryY=0.5;entryDx=0;entryDy=0;" edge="1" parent="84" source="85" target="88">
                    <mxGeometry relative="1" as="geometry"/>
                </mxCell>
                <mxCell id="93" style="edgeStyle=orthogonalEdgeStyle;html=1;exitX=1;exitY=0.3333333333333333;exitDx=0;exitDy=0;exitPerimeter=0;entryX=0;entryY=0.5;entryDx=0;entryDy=0;" edge="1" parent="84" source="85" target="89">
                    <mxGeometry relative="1" as="geometry"/>
                </mxCell>
                <mxCell id="94" style="edgeStyle=orthogonalEdgeStyle;html=1;exitX=1;exitY=0.3333333333333333;exitDx=0;exitDy=0;exitPerimeter=0;entryX=0;entryY=0.5;entryDx=0;entryDy=0;" edge="1" parent="84" source="85" target="90">
                    <mxGeometry relative="1" as="geometry"/>
                </mxCell>
                <mxCell id="95" style="edgeStyle=orthogonalEdgeStyle;html=1;exitX=1;exitY=0.3333333333333333;exitDx=0;exitDy=0;exitPerimeter=0;entryX=0;entryY=0.5;entryDx=0;entryDy=0;" edge="1" parent="84" source="85" target="91">
                    <mxGeometry relative="1" as="geometry"/>
                </mxCell>
                <mxCell id="115" style="edgeStyle=orthogonalEdgeStyle;html=1;exitX=1;exitY=0.3333333333333333;exitDx=0;exitDy=0;exitPerimeter=0;entryX=0;entryY=0.5;entryDx=0;entryDy=0;fontSize=10;" edge="1" parent="84" source="85" target="114">
                    <mxGeometry relative="1" as="geometry"/>
                </mxCell>
                <mxCell id="85" value="End User" style="shape=umlActor;verticalLabelPosition=bottom;verticalAlign=top;html=1;outlineConnect=0;fontSize=12;" parent="84" vertex="1">
                    <mxGeometry x="70" y="110" width="30" height="60" as="geometry"/>
                </mxCell>
                <mxCell id="103" style="edgeStyle=orthogonalEdgeStyle;html=1;exitX=1;exitY=0.3333333333333333;exitDx=0;exitDy=0;exitPerimeter=0;entryX=0;entryY=0.5;entryDx=0;entryDy=0;" edge="1" parent="84" source="87" target="102">
                    <mxGeometry relative="1" as="geometry"/>
                </mxCell>
                <mxCell id="87" value="Devloper" style="shape=umlActor;verticalLabelPosition=bottom;verticalAlign=top;html=1;outlineConnect=0;fontSize=12;" parent="84" vertex="1">
                    <mxGeometry x="70" y="900" width="30" height="60" as="geometry"/>
                </mxCell>
                <mxCell id="97" style="edgeStyle=orthogonalEdgeStyle;html=1;exitX=1;exitY=0.5;exitDx=0;exitDy=0;" edge="1" parent="84" source="88" target="96">
                    <mxGeometry relative="1" as="geometry"/>
                </mxCell>
                <mxCell id="88" value="SignUp" style="rounded=0;whiteSpace=wrap;html=1;fontSize=12;" parent="84" vertex="1">
                    <mxGeometry x="350" y="90" width="250" height="60" as="geometry"/>
                </mxCell>
                <mxCell id="98" style="edgeStyle=orthogonalEdgeStyle;html=1;exitX=1;exitY=0.5;exitDx=0;exitDy=0;entryX=0;entryY=0.5;entryDx=0;entryDy=0;" edge="1" parent="84" source="89" target="96">
                    <mxGeometry relative="1" as="geometry"/>
                </mxCell>
                <mxCell id="89" value="SignIn" style="rounded=0;whiteSpace=wrap;html=1;fontSize=12;" vertex="1" parent="84">
                    <mxGeometry x="350" y="180" width="250" height="60" as="geometry"/>
                </mxCell>
                <mxCell id="99" style="edgeStyle=orthogonalEdgeStyle;html=1;exitX=1;exitY=0.5;exitDx=0;exitDy=0;entryX=0.25;entryY=1;entryDx=0;entryDy=0;" edge="1" parent="84" source="90" target="96">
                    <mxGeometry relative="1" as="geometry"/>
                </mxCell>
                <mxCell id="90" value="Register New Source URL and Gen tiny URL" style="rounded=0;whiteSpace=wrap;html=1;fontSize=12;" vertex="1" parent="84">
                    <mxGeometry x="350" y="270" width="250" height="60" as="geometry"/>
                </mxCell>
                <mxCell id="100" style="edgeStyle=orthogonalEdgeStyle;html=1;exitX=1;exitY=0.5;exitDx=0;exitDy=0;entryX=0.5;entryY=1;entryDx=0;entryDy=0;" edge="1" parent="84" source="91" target="96">
                    <mxGeometry relative="1" as="geometry"/>
                </mxCell>
                <mxCell id="91" value="Delete URL Set" style="rounded=0;whiteSpace=wrap;html=1;fontSize=12;" vertex="1" parent="84">
                    <mxGeometry x="350" y="360" width="250" height="60" as="geometry"/>
                </mxCell>
                <mxCell id="96" value="Janusly Web" style="rounded=1;whiteSpace=wrap;html=1;" vertex="1" parent="84">
                    <mxGeometry x="760" y="180" width="160" height="60" as="geometry"/>
                </mxCell>
                <mxCell id="101" value="Janusly pkg" style="rounded=1;whiteSpace=wrap;html=1;" vertex="1" parent="84">
                    <mxGeometry x="760" y="900" width="160" height="60" as="geometry"/>
                </mxCell>
                <mxCell id="104" style="edgeStyle=orthogonalEdgeStyle;html=1;exitX=1;exitY=0.5;exitDx=0;exitDy=0;entryX=0;entryY=0.5;entryDx=0;entryDy=0;" edge="1" parent="84" source="102" target="101">
                    <mxGeometry relative="1" as="geometry"/>
                </mxCell>
                <mxCell id="102" value="Generate tiny URL" style="rounded=0;whiteSpace=wrap;html=1;fontSize=12;" vertex="1" parent="84">
                    <mxGeometry x="350" y="880" width="250" height="60" as="geometry"/>
                </mxCell>
                <mxCell id="106" value="&lt;font style=&quot;font-size: 10px;&quot;&gt;Limit&lt;br style=&quot;font-size: 10px;&quot;&gt;100 URLs ( Free )&lt;br style=&quot;font-size: 10px;&quot;&gt;Unlimited ( Pro )&lt;br style=&quot;font-size: 10px;&quot;&gt;&lt;br style=&quot;font-size: 10px;&quot;&gt;&lt;/font&gt;" style="shape=note;whiteSpace=wrap;html=1;backgroundOutline=1;darkOpacity=0.05;fontSize=10;fillColor=#E6E6E6;size=11;" vertex="1" parent="84">
                    <mxGeometry x="560" y="310" width="100" height="50" as="geometry"/>
                </mxCell>
                <mxCell id="116" style="edgeStyle=orthogonalEdgeStyle;html=1;exitX=1;exitY=0.5;exitDx=0;exitDy=0;entryX=0.75;entryY=1;entryDx=0;entryDy=0;fontSize=10;" edge="1" parent="84" source="114" target="96">
                    <mxGeometry relative="1" as="geometry"/>
                </mxCell>
                <mxCell id="114" value="Access Source Site via tiny URL" style="rounded=0;whiteSpace=wrap;html=1;fontSize=12;" vertex="1" parent="84">
                    <mxGeometry x="350" y="450" width="250" height="60" as="geometry"/>
                </mxCell>
                <mxCell id="120" style="edgeStyle=orthogonalEdgeStyle;html=1;exitX=1;exitY=0.5;exitDx=0;exitDy=0;entryX=0.9;entryY=0.983;entryDx=0;entryDy=0;entryPerimeter=0;fontSize=12;" edge="1" parent="84" source="117" target="96">
                    <mxGeometry relative="1" as="geometry"/>
                </mxCell>
                <mxCell id="117" value="Delete Expired URL Data" style="rounded=0;whiteSpace=wrap;html=1;fontSize=12;" vertex="1" parent="84">
                    <mxGeometry x="350" y="540" width="250" height="60" as="geometry"/>
                </mxCell>
                <mxCell id="119" style="edgeStyle=orthogonalEdgeStyle;html=1;exitX=1;exitY=0.5;exitDx=0;exitDy=0;entryX=0;entryY=0.5;entryDx=0;entryDy=0;fontSize=12;" edge="1" parent="84" source="118" target="117">
                    <mxGeometry relative="1" as="geometry"/>
                </mxCell>
                <mxCell id="118" value="Batch App" style="rounded=1;whiteSpace=wrap;html=1;fontSize=12;fillColor=#FFFFFF;" vertex="1" parent="84">
                    <mxGeometry x="60" y="547.5" width="90" height="45" as="geometry"/>
                </mxCell>
                <mxCell id="107" value="&lt;h1&gt;Domain Models&lt;/h1&gt;" style="text;html=1;strokeColor=none;fillColor=none;align=left;verticalAlign=middle;whiteSpace=wrap;rounded=0;fontSize=12;" vertex="1" parent="1">
                    <mxGeometry x="10" y="2730" width="400" height="30" as="geometry"/>
                </mxCell>
                <mxCell id="108" value="" style="endArrow=none;dashed=1;html=1;fontSize=10;" edge="1" parent="1">
                    <mxGeometry width="50" height="50" relative="1" as="geometry">
                        <mxPoint x="10" y="2690" as="sourcePoint"/>
                        <mxPoint x="1090" y="2690" as="targetPoint"/>
                    </mxGeometry>
                </mxCell>
                <mxCell id="109" value="" style="endArrow=none;dashed=1;html=1;fontSize=10;" edge="1" parent="1">
                    <mxGeometry width="50" height="50" relative="1" as="geometry">
                        <mxPoint x="10" y="1440" as="sourcePoint"/>
                        <mxPoint x="1090" y="1440" as="targetPoint"/>
                    </mxGeometry>
                </mxCell>
                <mxCell id="131" value="User Aggregate" style="swimlane;whiteSpace=wrap;html=1;fontSize=12;fillColor=#FFFFFF;" vertex="1" parent="1">
                    <mxGeometry x="190" y="2780" width="210" height="220" as="geometry"/>
                </mxCell>
                <mxCell id="110" value="User" style="swimlane;fontStyle=0;childLayout=stackLayout;horizontal=1;startSize=30;horizontalStack=0;resizeParent=1;resizeParentMax=0;resizeLast=0;collapsible=1;marginBottom=0;whiteSpace=wrap;html=1;fontSize=10;fillColor=#FFFFFF;" vertex="1" parent="131">
                    <mxGeometry x="30" y="45" width="140" height="150" as="geometry"/>
                </mxCell>
                <mxCell id="111" value="ID" style="text;strokeColor=none;fillColor=none;align=left;verticalAlign=middle;spacingLeft=4;spacingRight=4;overflow=hidden;points=[[0,0.5],[1,0.5]];portConstraint=eastwest;rotatable=0;whiteSpace=wrap;html=1;fontSize=10;" vertex="1" parent="110">
                    <mxGeometry y="30" width="140" height="30" as="geometry"/>
                </mxCell>
                <mxCell id="112" value="username" style="text;strokeColor=none;fillColor=none;align=left;verticalAlign=middle;spacingLeft=4;spacingRight=4;overflow=hidden;points=[[0,0.5],[1,0.5]];portConstraint=eastwest;rotatable=0;whiteSpace=wrap;html=1;fontSize=10;" vertex="1" parent="110">
                    <mxGeometry y="60" width="140" height="30" as="geometry"/>
                </mxCell>
                <mxCell id="113" value="email" style="text;strokeColor=none;fillColor=none;align=left;verticalAlign=middle;spacingLeft=4;spacingRight=4;overflow=hidden;points=[[0,0.5],[1,0.5]];portConstraint=eastwest;rotatable=0;whiteSpace=wrap;html=1;fontSize=10;" vertex="1" parent="110">
                    <mxGeometry y="90" width="140" height="30" as="geometry"/>
                </mxCell>
                <mxCell id="121" value="password" style="text;strokeColor=none;fillColor=none;align=left;verticalAlign=middle;spacingLeft=4;spacingRight=4;overflow=hidden;points=[[0,0.5],[1,0.5]];portConstraint=eastwest;rotatable=0;whiteSpace=wrap;html=1;fontSize=10;" vertex="1" parent="110">
                    <mxGeometry y="120" width="140" height="30" as="geometry"/>
                </mxCell>
                <mxCell id="132" value="URL Aggregate" style="swimlane;whiteSpace=wrap;html=1;fontSize=12;fillColor=#FFFFFF;" vertex="1" parent="1">
                    <mxGeometry x="480" y="2780" width="210" height="320" as="geometry"/>
                </mxCell>
                <mxCell id="122" value="URL Set" style="swimlane;fontStyle=0;childLayout=stackLayout;horizontal=1;startSize=30;horizontalStack=0;resizeParent=1;resizeParentMax=0;resizeLast=0;collapsible=1;marginBottom=0;whiteSpace=wrap;html=1;fontSize=10;fillColor=#FFFFFF;" vertex="1" parent="132">
                    <mxGeometry x="35" y="50" width="140" height="240" as="geometry"/>
                </mxCell>
                <mxCell id="123" value="ID" style="text;strokeColor=none;fillColor=none;align=left;verticalAlign=middle;spacingLeft=4;spacingRight=4;overflow=hidden;points=[[0,0.5],[1,0.5]];portConstraint=eastwest;rotatable=0;whiteSpace=wrap;html=1;fontSize=10;" vertex="1" parent="122">
                    <mxGeometry y="30" width="140" height="30" as="geometry"/>
                </mxCell>
                <mxCell id="124" value="source_url" style="text;strokeColor=none;fillColor=none;align=left;verticalAlign=middle;spacingLeft=4;spacingRight=4;overflow=hidden;points=[[0,0.5],[1,0.5]];portConstraint=eastwest;rotatable=0;whiteSpace=wrap;html=1;fontSize=10;" vertex="1" parent="122">
                    <mxGeometry y="60" width="140" height="30" as="geometry"/>
                </mxCell>
                <mxCell id="125" value="tiny_url" style="text;strokeColor=none;fillColor=none;align=left;verticalAlign=middle;spacingLeft=4;spacingRight=4;overflow=hidden;points=[[0,0.5],[1,0.5]];portConstraint=eastwest;rotatable=0;whiteSpace=wrap;html=1;fontSize=10;" vertex="1" parent="122">
                    <mxGeometry y="90" width="140" height="30" as="geometry"/>
                </mxCell>
                <mxCell id="138" value="created_at" style="text;strokeColor=none;fillColor=none;align=left;verticalAlign=middle;spacingLeft=4;spacingRight=4;overflow=hidden;points=[[0,0.5],[1,0.5]];portConstraint=eastwest;rotatable=0;whiteSpace=wrap;html=1;fontSize=10;" vertex="1" parent="122">
                    <mxGeometry y="120" width="140" height="30" as="geometry"/>
                </mxCell>
                <mxCell id="139" value="expired_at" style="text;strokeColor=none;fillColor=none;align=left;verticalAlign=middle;spacingLeft=4;spacingRight=4;overflow=hidden;points=[[0,0.5],[1,0.5]];portConstraint=eastwest;rotatable=0;whiteSpace=wrap;html=1;fontSize=10;" vertex="1" parent="122">
                    <mxGeometry y="150" width="140" height="30" as="geometry"/>
                </mxCell>
                <mxCell id="140" value="access_count" style="text;strokeColor=none;fillColor=none;align=left;verticalAlign=middle;spacingLeft=4;spacingRight=4;overflow=hidden;points=[[0,0.5],[1,0.5]];portConstraint=eastwest;rotatable=0;whiteSpace=wrap;html=1;fontSize=10;" vertex="1" parent="122">
                    <mxGeometry y="180" width="140" height="30" as="geometry"/>
                </mxCell>
                <mxCell id="141" value="last_accessed" style="text;strokeColor=none;fillColor=none;align=left;verticalAlign=middle;spacingLeft=4;spacingRight=4;overflow=hidden;points=[[0,0.5],[1,0.5]];portConstraint=eastwest;rotatable=0;whiteSpace=wrap;html=1;fontSize=10;" vertex="1" parent="122">
                    <mxGeometry y="210" width="140" height="30" as="geometry"/>
                </mxCell>
                <mxCell id="150" value="URL Metrics Aggregate" style="swimlane;whiteSpace=wrap;html=1;fontSize=12;fillColor=#FFFFFF;" vertex="1" parent="1">
                    <mxGeometry x="780" y="2780" width="210" height="220" as="geometry"/>
                </mxCell>
                <mxCell id="142" value="Access" style="swimlane;fontStyle=0;childLayout=stackLayout;horizontal=1;startSize=30;horizontalStack=0;resizeParent=1;resizeParentMax=0;resizeLast=0;collapsible=1;marginBottom=0;whiteSpace=wrap;html=1;fontSize=10;fillColor=#FFFFFF;" vertex="1" parent="150">
                    <mxGeometry x="30" y="45" width="140" height="150" as="geometry"/>
                </mxCell>
                <mxCell id="143" value="ID" style="text;strokeColor=none;fillColor=none;align=left;verticalAlign=middle;spacingLeft=4;spacingRight=4;overflow=hidden;points=[[0,0.5],[1,0.5]];portConstraint=eastwest;rotatable=0;whiteSpace=wrap;html=1;fontSize=10;" vertex="1" parent="142">
                    <mxGeometry y="30" width="140" height="30" as="geometry"/>
                </mxCell>
                <mxCell id="144" value="user_agent" style="text;strokeColor=none;fillColor=none;align=left;verticalAlign=middle;spacingLeft=4;spacingRight=4;overflow=hidden;points=[[0,0.5],[1,0.5]];portConstraint=eastwest;rotatable=0;whiteSpace=wrap;html=1;fontSize=10;" vertex="1" parent="142">
                    <mxGeometry y="60" width="140" height="30" as="geometry"/>
                </mxCell>
                <mxCell id="145" value="geo_location" style="text;strokeColor=none;fillColor=none;align=left;verticalAlign=middle;spacingLeft=4;spacingRight=4;overflow=hidden;points=[[0,0.5],[1,0.5]];portConstraint=eastwest;rotatable=0;whiteSpace=wrap;html=1;fontSize=10;" vertex="1" parent="142">
                    <mxGeometry y="90" width="140" height="30" as="geometry"/>
                </mxCell>
                <mxCell id="146" value="url_set_id" style="text;strokeColor=none;fillColor=none;align=left;verticalAlign=middle;spacingLeft=4;spacingRight=4;overflow=hidden;points=[[0,0.5],[1,0.5]];portConstraint=eastwest;rotatable=0;whiteSpace=wrap;html=1;fontSize=10;" vertex="1" parent="142">
                    <mxGeometry y="120" width="140" height="30" as="geometry"/>
                </mxCell>
                <mxCell id="159" value="&lt;h3&gt;Future work&lt;/h3&gt;&lt;ul&gt;&lt;li&gt;URL Categorize automatically&lt;/li&gt;&lt;li&gt;Access Analysis&lt;/li&gt;&lt;li&gt;Site Suggestion&lt;/li&gt;&lt;/ul&gt;" style="text;html=1;strokeColor=none;fillColor=none;align=left;verticalAlign=middle;whiteSpace=wrap;rounded=0;fontSize=12;" vertex="1" parent="1">
                    <mxGeometry x="50" y="3130" width="270" height="120" as="geometry"/>
                </mxCell>
                <mxCell id="160" style="edgeStyle=orthogonalEdgeStyle;html=1;exitX=0;exitY=0.5;exitDx=0;exitDy=0;entryX=1;entryY=0.5;entryDx=0;entryDy=0;fontSize=12;" edge="1" parent="1" source="143" target="140">
                    <mxGeometry relative="1" as="geometry"/>
                </mxCell>
                <mxCell id="161" value="count" style="edgeLabel;html=1;align=center;verticalAlign=middle;resizable=0;points=[];fontSize=12;" vertex="1" connectable="0" parent="160">
                    <mxGeometry x="-0.0097" relative="1" as="geometry">
                        <mxPoint y="1" as="offset"/>
                    </mxGeometry>
                </mxCell>
            </root>
        </mxGraphModel>
    </diagram>
</mxfile>